<?xml version="1.0" encoding="UTF-8"?>
<svg width="118px" height="28px" viewBox="0 0 118 28" version="1.1" xmlns="http://www.w3.org/2000/svg" xmlns:xlink="http://www.w3.org/1999/xlink">
    <!-- Generator: Sketch 42 (36781) - http://www.bohemiancoding.com/sketch -->
    <title>Group</title>
    <desc>Created with Sketch.</desc>
    <defs></defs>
    <g id="Page-1" stroke="none" stroke-width="1" fill="none" fill-rule="evenodd">
        <g id="UNICEF_logo" fill-rule="nonzero" fill="#FFFFFF">
            <g id="Symbols">
                <g id="Footer">
                    <g id="Unicef-logo">
                        <g id="Group">
                            <g>
                                <path d="M107.769134,19.2908053 C106.289392,18.4922453 106.262073,17.3849387 106.339855,16.977632 C106.418015,16.564352 106.707514,16.745792 106.890774,16.745792 C107.863231,16.745792 108.88615,16.461312 110.14545,15.195712 C111.566382,13.768832 112.012961,10.5984853 109.83015,8.53320533 C107.47698,6.30440533 104.974697,6.694912 103.361777,8.696352 C103.030163,9.107392 102.223514,9.40829867 101.524999,9.38365867 C100.490318,9.34520533 101.142163,10.1471253 101.142163,10.314752 C101.142163,10.4831253 100.985462,10.599232 100.892884,10.5730987 C100.54116,10.4741653 100.683823,10.9860053 100.683823,11.141312 C100.683823,11.2962453 100.539263,11.3738987 100.460343,11.3738987 C100.025527,11.3738987 100.145424,11.7610453 100.158324,11.8644587 C100.171224,11.967872 100.133282,12.1466987 99.9875846,12.2258453 C99.8490958,12.3020053 99.6855653,12.6394987 99.6855653,12.897472 C99.6855653,13.3618987 100.118864,13.684832 100.841662,14.214592 C101.562183,14.744352 101.654382,15.2476053 101.667662,15.6093653 C101.680562,15.9711253 101.715089,16.5538987 101.878241,16.939552 C102.074781,17.4039787 102.048601,18.2562987 101.051102,18.294752 C99.8320219,18.342912 97.6651473,19.302752 97.4815074,19.366592 C96.794755,19.6081387 95.8849029,19.6943787 95.1746264,19.518912 C94.7917904,19.2527253 94.4271666,18.962272 94.0837904,18.6501653 C93.941128,18.1689387 94.1881312,17.6492587 94.4370315,17.3005653 C94.8437711,17.701152 95.4474302,17.6750187 95.7881505,17.6884587 C96.1292502,17.701152 97.796427,17.4431787 98.0320476,17.365152 C98.2695653,17.287872 98.3739061,17.313632 98.5177068,17.365152 C99.1528579,17.5932587 100.026665,17.6615787 100.381424,16.461312 C100.735803,15.260672 99.8957646,15.5962987 99.7914238,15.6478187 C99.6855653,15.699712 99.5413852,15.686272 99.5941248,15.5836053 C99.7496875,15.2782187 99.5163434,15.3125653 99.3839254,15.2994987 C99.0447228,15.2655253 98.5970058,15.6216853 98.4528257,15.751232 C98.3075074,15.8804053 98.1633273,15.8673387 98.1113466,15.8415787 C97.6594559,15.6198187 96.3113723,15.9401387 95.8932502,15.2210987 C95.9330894,15.0280853 95.5517711,12.1097387 95.3552309,11.6057387 C95.3127357,11.498592 95.2766907,11.3220053 95.4083498,11.1286187 C95.7498289,10.6234987 96.6934495,11.1674453 97.2056682,11.1543787 C97.8188129,11.1386987 97.9163241,10.8874453 98.0847871,10.6828587 C98.2471794,10.4853653 98.3655588,10.5962453 98.4528257,10.540992 C98.5643756,10.4696853 98.4588965,10.328192 98.4983563,10.2505387 C98.5378161,10.1728853 98.583726,10.2109653 98.6880669,10.1213653 C98.793546,10.0306453 98.675546,9.83725867 98.7275267,9.75997867 C98.8789158,9.53560533 99.2913466,9.71517867 99.0432051,9.12717867 C98.9077518,8.80573867 99.0955653,8.455552 99.2795846,8.22296533 C99.5766714,7.84701867 100.725179,6.25736533 98.7021055,4.607232 C96.7712309,3.033632 94.8168322,3.16093867 93.5571537,4.504192 C92.2974752,5.847072 92.9276939,7.81005867 93.0585942,8.32637867 C93.1902534,8.84269867 92.8112116,9.31085867 92.3760154,9.51432533 C92.031501,9.67485867 91.246099,10.1911787 90.6507871,10.6992853 C90.7464013,6.48509867 93.3446778,2.78088533 97.3312566,1.20168533 C97.500099,1.41149867 97.6898096,1.60973867 97.8943177,1.79453867 C97.4507743,2.11373867 96.4813531,2.966432 96.4813531,2.966432 C96.4813531,2.966432 96.6137711,2.98621867 96.7367035,3.015712 C96.8216939,3.035872 97.001919,3.09000533 97.001919,3.09000533 C97.001919,3.09000533 97.8563756,2.37469867 98.2574238,2.09133867 C98.5685492,2.32392533 98.90889,2.51917867 99.2704785,2.675232 C99.0762148,2.998912 98.5897968,3.89789867 98.5897968,3.89789867 C98.5897968,3.89789867 98.7047614,3.96285867 98.8045492,4.029312 C98.9047164,4.095392 98.9673209,4.153632 98.9673209,4.153632 C98.9673209,4.153632 99.4985106,3.16952533 99.6984656,2.84136533 C100.146183,2.98845867 100.610215,3.07320533 101.081835,3.094112 L101.081835,4.893952 C100.819276,4.887232 100.148839,4.86109867 99.874517,4.83384533 L99.7037775,4.81704533 L99.8001505,4.956672 C99.8718611,5.06045867 99.9272566,5.16312533 99.9769608,5.257952 L99.9970701,5.29752533 L100.041462,5.300512 C100.239141,5.31656533 100.851906,5.338592 101.081835,5.34344533 L101.081835,8.62205867 L101.543591,8.62205867 L101.543591,7.87128533 C102.221237,7.839552 102.785437,7.79288533 103.466498,7.735392 L103.497231,7.73277867 L104.095958,7.21048533 L103.769655,7.23960533 C103.048376,7.33181867 102.41588,7.37437867 101.841057,7.406112 C101.841057,7.406112 101.646414,7.41693867 101.543591,7.422912 L101.543591,5.34269867 C102.380215,5.32552533 103.217977,5.209792 104.036009,4.998112 C104.260247,5.540192 104.681784,6.85245867 104.681784,6.85245867 L105.11698,6.71805867 C105.11698,6.71805867 104.698099,5.41512533 104.476138,4.873792 C105.168581,4.66248533 105.839019,4.38173867 106.473411,4.038272 C106.982974,4.65613867 107.42462,5.33149867 107.788485,6.04829867 C107.459906,6.19800533 106.861938,6.40744533 106.862697,6.40744533 C107.342286,6.45821867 107.705392,6.56984533 107.705392,6.56984533 C107.705392,6.56984533 107.874614,6.49928533 107.983887,6.45149867 C108.025623,6.54557867 108.109096,6.73709867 108.109096,6.73709867 L108.707064,6.99805867 L108.639147,6.83341867 C108.639147,6.83341867 108.439192,6.36824533 108.392523,6.259232 C109.026916,5.952352 109.649167,5.598432 110.245237,5.20493867 C111.380086,6.91144533 111.982607,8.89197867 111.982607,10.939712 C111.982607,14.3426453 110.327951,17.3714987 107.769134,19.2908053 L107.769134,19.2908053 Z M100.153012,0.512885333 C99.4958547,0.796245333 98.865636,1.13597867 98.2752566,1.53096533 C98.0957904,1.37528533 97.9318804,1.209152 97.7827678,1.03629867 C98.5454045,0.773098667 99.3399125,0.599125333 100.153012,0.512885333 L100.153012,0.512885333 Z M99.5102727,2.29144533 C99.2074945,2.16525867 98.9225492,2.006592 98.6569543,1.821792 C99.2575781,1.429792 99.9010765,1.097152 100.574549,0.825365333 C100.195507,1.293152 99.8365749,1.78221867 99.5102727,2.29144533 L99.5102727,2.29144533 Z M101.081835,0.918325333 L101.081835,2.64349867 C100.697102,2.62445867 100.317681,2.55725867 99.9485042,2.445632 C100.290363,1.920352 100.67206,1.40925867 101.081835,0.918325333 L101.081835,0.918325333 Z M101.543591,3.095232 C102.020903,3.07469867 102.490626,2.98957867 102.943276,2.840992 C103.280961,3.39688533 103.586395,3.981152 103.854646,4.58109867 C103.096941,4.77261867 102.320646,4.87864533 101.543591,4.895072 L101.543591,3.095232 L101.543591,3.095232 Z M101.543591,0.898165333 C101.951469,1.38424533 102.33734,1.901312 102.692099,2.445632 C102.31799,2.558752 101.932877,2.625952 101.543591,2.643872 L101.543591,0.898165333 L101.543591,0.898165333 Z M103.986684,1.821792 C103.718433,2.007712 103.433109,2.16637867 103.132607,2.291072 C102.810858,1.78968533 102.448511,1.29837867 102.060742,0.821632 C102.734974,1.09341867 103.381128,1.427552 103.986684,1.821792 L103.986684,1.821792 Z M104.857456,1.040032 C104.706446,1.21549867 104.542916,1.38088533 104.366105,1.532832 C103.778003,1.13821867 103.152337,0.799232 102.500871,0.517738667 C103.310935,0.604352 104.10089,0.777578667 104.857456,1.040032 L104.857456,1.040032 Z M106.17215,3.689952 C105.573803,4.00653867 104.945102,4.26525867 104.298948,4.45901867 C104.029179,3.84973867 103.717675,3.250912 103.371263,2.67597867 C103.729816,2.52141867 104.070157,2.32653867 104.385456,2.09245867 C105.03806,2.55837867 105.637925,3.09560533 106.17215,3.689952 L106.17215,3.689952 Z M105.309347,1.205792 C106.196813,1.558592 107.033816,2.032352 107.801765,2.61288533 C107.418549,2.922752 107.007636,3.20872533 106.575475,3.46333867 C106.030247,2.84696533 105.415585,2.28733867 104.745906,1.79789867 C104.949276,1.61533867 105.138986,1.417472 105.309347,1.205792 L105.309347,1.205792 Z M109.988369,4.835712 C109.418478,5.212032 108.817475,5.55437867 108.19826,5.85528533 C107.832498,5.13101867 107.385919,4.44445867 106.869906,3.81128533 C107.327109,3.537632 107.762305,3.231872 108.16563,2.89885867 C108.8539,3.46781867 109.465906,4.118912 109.988369,4.835712 L109.988369,4.835712 Z M101.314421,-7.46666667e-05 C95.1841119,-7.46666667e-05 90.1966199,4.90776533 90.1966199,10.939712 C90.1966199,16.972032 95.1841119,21.879872 101.314421,21.879872 C107.445109,21.879872 112.432601,16.972032 112.432601,10.939712 C112.432601,4.90776533 107.445109,-7.46666667e-05 101.314421,-7.46666667e-05 L101.314421,-7.46666667e-05 Z" id="Fill-1"></path>
                                <path d="M89.1906605,2.90770667 L89.0165061,3.05928 C88.3654193,3.62712 86.8750527,5.12605333 87.1042232,6.77208 C87.104982,6.77693333 87.1269884,6.88706667 87.1269884,6.88706667 C87.1273678,6.88893333 87.2005961,7.21336 87.2005961,7.21336 L87.4092778,7.02557333 C88.3229241,6.20461333 89.0066412,4.81245333 89.2862746,3.20637333 L89.3655736,2.75576 L89.1906605,2.90770667 Z" id="Fill-3"></path>
                                <path d="M86.1640174,5.75037867 L86.0896508,5.94861867 C85.9864482,6.22376533 85.7982553,6.800192 85.6980881,7.56813867 C85.5561846,8.65416533 85.5888148,10.189312 86.5479916,11.3369387 C86.546474,11.3354453 86.6538502,11.4724587 86.6538502,11.4724587 L86.7642617,11.611712 L86.9054064,10.9143253 C87.0659016,9.680832 86.8568405,7.09848533 86.3950849,5.94525867 L86.2380045,5.55213867 L86.1640174,5.75037867 Z" id="Fill-5"></path>
                                <path d="M85.0602051,10.193008 L85.0461666,10.395728 C84.9668675,11.5015413 85.0241601,14.2298613 87.2699543,15.677648 C87.2703338,15.6780213 87.5351698,15.8475147 87.5351698,15.8475147 L87.5237871,15.5369013 C87.4843273,14.5012747 86.2557614,11.4111947 85.3360444,10.3046347 L85.0746232,9.99103467 L85.0602051,10.193008 Z" id="Fill-7"></path>
                                <path d="M85.445735,15.0754987 L85.4848154,15.2614187 C85.8126354,16.8290453 87.3246289,19.3684587 89.6580695,20.1065387 L89.9764039,20.207712 L89.8614392,19.8982187 C89.4266225,18.7252053 87.1770341,15.993152 85.7321981,15.0930453 L85.4066547,14.8892053 L85.445735,15.0754987 Z" id="Fill-9"></path>
                                <path d="M90.1332945,5.26967467 L89.9488958,5.379808 C88.2126643,6.422528 87.3988058,7.687008 87.4606514,9.246048 L87.4754489,9.602208 L87.7296611,9.39538133 C88.669108,8.63079467 89.8441756,6.67490133 90.1905871,5.56498133 C90.1909666,5.56498133 90.3173138,5.159168 90.3173138,5.159168 L90.1332945,5.26967467 Z" id="Fill-11"></path>
                                <path d="M89.1108302,8.68455467 L88.9806887,8.807008 C88.5360071,9.22439467 87.096483,10.7307947 87.2209331,12.5952213 C87.2402836,12.8808213 87.3063029,13.188448 87.4174733,13.5091413 L87.5206759,13.8051947 L87.7058334,13.550208 C88.394483,12.5978347 89.304335,10.0856747 89.2569074,8.916768 L89.2417305,8.56210133 L89.1108302,8.68455467 Z" id="Fill-13"></path>
                                <path d="M89.1854624,11.9191147 L89.0883305,12.061728 C88.3617389,13.1216213 87.9918032,14.2113813 88.016845,15.2126613 C88.0354367,15.954848 88.2759897,16.664928 88.7305363,17.324608 L88.8830637,17.5456213 L89.0105492,17.310048 C89.3224334,16.7313813 89.5728514,14.8497813 89.5356682,13.362048 C89.5223884,12.8363947 89.46889,12.402208 89.3804849,12.1061547 L89.2829736,11.7768747 L89.1854624,11.9191147 Z" id="Fill-15"></path>
                                <path d="M90.0295228,15.3777493 L89.9824746,15.5270827 C89.7631691,16.216256 89.6614842,16.8886293 89.6804553,17.5259093 C89.7214328,18.9729493 90.372899,20.103776 91.615883,20.887776 C91.6162624,20.887776 91.8268412,21.018816 91.8268412,21.018816 L91.8712334,20.7406827 C91.8723717,20.7347093 91.8898251,20.518176 91.8898251,20.518176 C91.8556772,19.3429227 90.9647961,16.3823893 90.2685582,15.4778027 L90.0769505,15.2287893 L90.0295228,15.3777493 Z" id="Fill-17"></path>
                                <path d="M87.5797897,19.9641867 L87.6697125,20.1124 C88.6046064,21.6550133 90.1917254,23.6463733 93.1618347,23.1364 L93.4099762,23.09384 L93.2692109,22.8881333 C92.7152559,22.0765067 89.1099955,20.0750667 87.8366579,19.8716 L87.4898669,19.8156 L87.5797897,19.9641867 Z" id="Fill-19"></path>
                                <path d="M91.9716662,23.8823947 L91.9716662,23.8823947 L91.5053576,24.0067147 L91.9523158,24.1866613 C93.841454,24.9482613 96.2075248,25.1711413 97.5787531,24.7164213 C98.0962836,24.5443147 98.4089267,24.2673013 98.7906244,23.8991947 C101.207538,24.1452213 103.468888,26.1220213 104.786997,27.7370613 C104.787756,27.7374347 104.858708,27.8158347 104.858708,27.8158347 L104.960393,27.7833547 C105.108367,27.7351947 105.337158,27.5593547 105.431634,27.4593013 L105.525731,27.3599947 L105.442258,27.251728 C104.067615,25.4825013 101.913261,24.3849013 101.818785,24.3415947 C99.8803222,23.4097547 96.4583222,22.685488 91.9716662,23.8823947" id="Fill-21"></path>
                                <path d="M92.0717196,18.9426347 L92.0971408,19.0994347 C92.3805685,20.8485013 93.1033659,23.1445013 96.1072437,22.8906347 L96.2992309,22.8745813 L96.2521826,22.6912747 C96.048054,21.8945813 93.2961119,19.5829013 92.3346585,18.931808 L92.0470572,18.7854613 L92.0717196,18.9426347 Z" id="Fill-24"></path>
                                <path d="M113.308912,2.75568533 L113.387452,3.206672 C113.666706,4.81237867 114.351561,6.204912 115.264449,7.02549867 L115.47351,7.21328533 C115.47351,7.21328533 115.545979,6.88885867 115.546359,6.886992 C115.546359,6.886992 115.569124,6.77685867 115.569883,6.77200533 C115.798674,5.12597867 114.309066,3.62741867 113.657221,3.05957867 L113.483066,2.907632 L113.308912,2.75568533 Z" id="Fill-26"></path>
                                <path d="M116.435457,5.5524 L116.278756,5.94514667 C115.816621,7.09874667 115.607559,9.68109333 115.768055,10.9142133 L115.909199,11.6116 L116.019611,11.4723467 C116.019611,11.4723467 116.127367,11.3353333 116.125849,11.3368267 C117.084646,10.1892 117.117277,8.65405333 116.976511,7.5684 C116.875585,6.80008 116.687392,6.22402667 116.584569,5.94888 L116.509444,5.75064 L116.435457,5.5524 Z" id="Fill-28"></path>
                                <path d="M117.599255,9.99103467 L117.337834,10.3046347 C116.417738,11.4111947 115.188792,14.5012747 115.150091,15.5372747 L115.138709,15.8475147 C115.138709,15.8475147 115.403165,15.6780213 115.403924,15.677648 C117.649718,14.2302347 117.70739,11.5015413 117.628091,10.395728 L117.613673,10.193008 L117.599255,9.99103467 Z" id="Fill-30"></path>
                                <path d="M117.26692,14.8892053 L116.941756,15.0930453 C115.4973,15.993152 113.246952,18.7255787 112.812136,19.8982187 L112.697171,20.207712 L113.015885,20.1065387 C115.348567,19.368832 116.861319,16.8290453 117.188759,15.261792 L117.22784,15.0754987 L117.26692,14.8892053 Z" id="Fill-32"></path>
                                <path d="M112.444856,5.10615467 L112.563235,5.514208 C112.887641,6.63047467 114.023628,8.608768 114.947898,9.39127467 L115.197557,9.60295467 L115.219184,9.247168 C115.312901,7.68962133 114.524084,6.40983467 112.808721,5.33426133 L112.626978,5.22002133 L112.444856,5.10615467 Z" id="Fill-34"></path>
                                <path d="M113.43192,8.56202667 L113.417502,8.91669333 C113.369316,10.0856 114.278788,12.59776 114.967817,13.54976 L115.152975,13.8047467 L115.256177,13.5090667 C115.367727,13.1883733 115.434126,12.8807467 115.453097,12.5951467 C115.577168,10.73072 114.138023,9.22432 113.693341,8.80693333 L113.562821,8.68448 L113.43192,8.56202667 Z" id="Fill-36"></path>
                                <path d="M113.390829,11.7767627 L113.293697,12.106416 C113.205292,12.402096 113.151414,12.8362827 113.138514,13.361936 C113.100572,14.8500427 113.351369,16.7316427 113.663633,17.3103093 L113.791118,17.5458827 L113.943266,17.324496 C114.397813,16.6651893 114.638366,15.954736 114.656958,15.2129227 C114.681999,14.2112693 114.312064,13.1215093 113.585851,12.061616 L113.48834,11.9190027 L113.390829,11.7767627 Z" id="Fill-38"></path>
                                <path d="M112.596776,15.22864 L112.405168,15.4780267 C111.70931,16.3826133 110.81805,19.3427733 110.78466,20.5180267 C110.78466,20.5180267 110.802114,20.73456 110.802493,20.7409067 L110.847265,21.0186667 C110.847265,21.0186667 111.057085,20.8876267 111.057844,20.8876267 C112.301207,20.104 112.952294,18.9728 112.993651,17.52576 C113.012242,16.8888533 112.910558,16.2161067 112.691252,15.5273067 L112.644204,15.3776 L112.596776,15.22864 Z" id="Fill-40"></path>
                                <path d="M115.183784,19.8156373 C115.183784,19.8156373 114.837752,19.8716373 114.836993,19.8716373 C113.563276,20.075104 109.958395,22.076544 109.40444,22.8881707 L109.264054,23.0938773 L109.512195,23.1364373 C112.482684,23.6464107 114.069044,21.6550507 115.003938,20.1124373 L115.093861,19.964224 L115.183784,19.8156373 Z" id="Fill-42"></path>
                                <path d="M100.855473,24.3415573 C100.760997,24.384864 98.6066431,25.482464 97.2316206,27.2513173 L97.1477685,27.3599573 L97.2422444,27.459264 C97.3370997,27.558944 97.5655113,27.7351573 97.713865,27.7833173 L97.8151704,27.8157973 C97.8151704,27.8157973 97.8865016,27.7373973 97.8865016,27.737024 C99.2046109,26.121984 101.466341,24.145184 103.882875,23.8991573 C104.264572,24.267264 104.577215,24.5442773 105.094746,24.716384 C106.465974,25.171104 108.832424,24.948224 110.721183,24.186624 L111.168521,24.0066773 L110.702592,23.8823573 C106.215177,22.6854507 102.793556,23.4097173 100.855473,24.3415573" id="Fill-44"></path>
                                <path d="M110.626669,18.7854987 L110.339448,18.9318453 C109.377615,19.5829387 106.626052,21.8942453 106.421544,22.6909387 L106.374875,22.8746187 L106.566483,22.890672 C109.569981,23.1441653 110.293158,20.8481653 110.576206,19.099472 L110.602007,18.942672 L110.626669,18.7854987 Z" id="Fill-47"></path>
                                <path d="M35.024373,24.6806187 L38.1807781,24.6806187 L38.1807781,8.27000533 L35.024373,8.27000533 L35.024373,24.6806187 Z M34.7257685,4.44445867 L38.4801415,4.44445867 L38.4801415,1.076992 L34.7257685,1.076992 L34.7257685,4.44445867 Z" id="Fill-49"></path>
                                <path d="M11.1960752,8.28460267 L14.3524804,8.28460267 L14.3524804,24.6955893 L11.262474,24.6955893 L11.262474,22.276016 L11.1960752,22.276016 C9.93374084,24.3353227 7.80708489,25.185776 5.48161222,25.185776 C1.99359293,25.185776 0.000113826366,22.570576 0.000113826366,19.268816 L0.000113826366,8.28460267 L3.15651897,8.28460267 L3.15651897,17.9938827 C3.15651897,20.8375627 3.82088553,22.9297227 6.84449325,22.9297227 C8.13945788,22.9297227 9.90035177,22.276016 10.5654772,20.5766027 C11.1626862,19.0399627 11.1960752,17.110576 11.1960752,16.7189493 L11.1960752,8.28460267 Z" id="Fill-51"></path>
                                <path d="M20.6545531,10.7034293 L20.7217106,10.7034293 C21.7848489,8.64412267 24.1110804,7.79516267 25.7718071,7.79516267 C26.9343537,7.79516267 32.0842379,8.08860267 32.0842379,13.351856 L32.0842379,24.6955893 L28.9285916,24.6955893 L28.9285916,14.3650827 C28.9285916,11.651696 27.7656656,10.1807627 25.1070611,10.1807627 C25.1070611,10.1807627 23.3787974,10.083696 22.0504437,11.3903627 C21.5860322,11.847696 20.7217106,12.566736 20.7217106,15.771056 L20.7217106,24.6955893 L17.5653055,24.6955893 L17.5653055,8.28460267 L20.6545531,8.28460267 L20.6545531,10.7034293 Z" id="Fill-52"></path>
                                <path d="M51.3982199,13.5478933 C51.231654,11.5005333 50.2432617,10.0751467 47.9978469,10.0751467 C44.9966251,10.0751467 43.8397698,12.6362133 43.8397698,16.4733333 C43.8397698,20.30448 44.9966251,22.8711467 47.9978469,22.8711467 C50.0747987,22.8711467 51.3625543,21.5428267 51.5264643,19.2009067 L54.6654161,19.2009067 C54.398683,22.8711467 51.6292875,25.11152 47.9644579,25.11152 C42.6495254,25.11152 40.5391846,21.4114133 40.5391846,16.6021333 C40.5391846,11.8223467 42.978863,7.82954667 48.2308116,7.82954667 C51.7302135,7.82954667 54.3690881,10.00832 54.5292039,13.5478933 L51.3982199,13.5478933 Z" id="Fill-53"></path>
                                <path d="M67.762809,14.9145547 C67.8307254,12.1862347 66.5729441,10.0750347 63.536436,10.0750347 C60.9256386,10.0750347 59.3798765,12.243728 59.3798765,14.9145547 L67.762809,14.9145547 Z M59.3798765,17.0545013 C59.1476707,19.9138613 60.3371563,22.8710347 63.536436,22.8710347 C65.9795293,22.8710347 67.2008862,21.9313547 67.5609569,19.5543413 L70.8664746,19.5543413 C70.3690534,23.2630347 67.4630662,25.111408 63.5049441,25.111408 C58.1900116,25.111408 56.0736,21.4113013 56.0736,16.6020213 C56.0736,11.8222347 58.5216257,7.82943467 63.7682624,7.82943467 C68.7193299,7.93210133 71.0607383,11.0124747 71.0607383,15.5313013 L71.0607383,17.0545013 L59.3798765,17.0545013 Z" id="Fill-54"></path>
                                <path d="M74.6135248,24.6239467 L74.6135248,10.4637867 L71.7617949,10.4637867 L71.7617949,8.31488 L74.6135248,8.31488 L74.6135248,4.81152 C74.7163479,1.23685333 77.4531132,0.296426667 79.7975569,0.296426667 C80.5545023,0.296426667 81.2845087,0.489813333 82.0448688,0.61824 L82.0448688,3.18341333 C81.5129203,3.15541333 80.9874219,3.08485333 80.4562322,3.08485333 C78.6778849,3.08485333 77.6515505,3.54405333 77.7502,5.32709333 L77.7502,8.31488 L81.5808367,8.31488 L81.5808367,10.4637867 L77.7502,10.4637867 L77.7502,24.6239467 L74.6135248,24.6239467 Z" id="Fill-55"></path>
                            </g>
                        </g>
                    </g>
                </g>
            </g>
        </g>
    </g>
</svg>